<svg width="64" height="64" viewBox="0 0 64 64" fill="none" xmlns="http://www.w3.org/2000/svg">
<path d="M32 1C14.92 1 1 14.92 1 32C1 49.08 14.92 63 32 63C49.08 63 63 49.08 63 32C63 14.92 49.08 1 32 1ZM32 57C18.2 57 7 45.8 7 32C7 18.2 18.2 7 32 7C45.8 7 57 18.2 57 32C57 45.8 45.8 57 32 57Z" fill="#F43A6C"/>
<path d="M32 16C29.8 16 28 17.8 28 20V32C28 34.2 29.8 36 32 36C34.2 36 36 34.2 36 32V20C36 17.8 34.2 16 32 16Z" fill="#F43A6C"/>
<path d="M28 44C28 45.0609 28.4214 46.0783 29.1716 46.8284C29.9217 47.5786 30.9391 48 32 48C33.0609 48 34.0783 47.5786 34.8284 46.8284C35.5786 46.0783 36 45.0609 36 44C36 42.9391 35.5786 41.9217 34.8284 41.1716C34.0783 40.4214 33.0609 40 32 40C30.9391 40 29.9217 40.4214 29.1716 41.1716C28.4214 41.9217 28 42.9391 28 44Z" fill="#F43A6C"/>
</svg>
