<svg width="64" height="64" viewBox="0 0 64 64" fill="none" xmlns="http://www.w3.org/2000/svg">
<path d="M32 63C14.92 63 1 49.08 1 32C1 14.92 14.92 1 32 1C49.08 1 63 14.92 63 32C63 49.08 49.08 63 32 63ZM32 7C18.2 7 7 18.2 7 32C7 45.8 18.2 57 32 57C45.8 57 57 45.8 57 32C57 18.2 45.8 7 32 7Z" fill="#15C076"/>
<path d="M27.9998 43C27.2398 43 26.4798 42.72 25.8798 42.12L17.8798 34.12C16.7198 32.96 16.7198 31.04 17.8798 29.88C19.0398 28.72 20.9598 28.72 22.1198 29.88L27.9998 35.76L41.8798 21.88C43.0398 20.72 44.9598 20.72 46.1198 21.88C47.2798 23.04 47.2798 24.96 46.1198 26.12L30.1198 42.12C29.5198 42.72 28.7598 43 27.9998 43Z" fill="#15C076"/>
</svg>
